<?xml version="1.0" standalone="no"?>
<!DOCTYPE svg PUBLIC "-//W3C//DTD SVG 20010904//EN"
 "http://www.w3.org/TR/2001/REC-SVG-20010904/DTD/svg10.dtd">
<svg version="1.0" xmlns="http://www.w3.org/2000/svg"
 width="1400.000000pt" height="135.000000pt" viewBox="0 0 1400.000000 135.000000"
 preserveAspectRatio="xMidYMid meet">

<g transform="translate(0.000000,135.000000) scale(0.100000,-0.100000)"
fill="#ffffff" stroke="none">
<path d="M5975 1104 c-150 -10 -305 -28 -305 -36 0 -6 19 -9 43 -7 70 4 147
-1 147 -9 0 -10 -332 -28 -760 -43 -173 -6 -316 -12 -318 -14 -8 -8 587 -15
668 -7 96 9 248 2 220 -10 -25 -11 -111 -17 -390 -27 -226 -8 -363 -21 -377
-35 -2 -2 126 -2 284 0 278 3 284 2 188 -11 -90 -12 -228 -23 -580 -45 -88 -6
-32 -7 215 -7 188 0 342 -3 350 -8 8 -6 56 -12 105 -16 50 -3 -182 -4 -515 -2
-525 3 -935 15 -949 29 -2 2 18 4 45 5 175 4 301 12 379 24 87 14 80 14 -189
9 -154 -2 -278 -2 -275 0 3 3 157 12 343 20 186 8 340 17 343 19 2 2 -119 7
-269 11 -150 4 -340 11 -423 17 -99 6 -215 5 -340 -1 -104 -6 -243 -14 -307
-17 -69 -3 -118 -10 -118 -16 0 -6 41 -8 117 -4 65 4 228 8 362 8 229 2 245 1
258 -17 13 -18 10 -19 -84 -27 -134 -12 -239 -10 -428 8 -88 8 -254 22 -370
31 -115 8 -237 19 -270 24 -71 10 -198 10 -240 1 -27 -6 -25 -8 22 -14 29 -4
53 -12 53 -17 0 -6 -72 -10 -183 -10 -101 0 -232 -3 -290 -7 l-107 -6 0 30 0
30 -338 -4 c-185 -2 -362 -8 -393 -14 -59 -10 -92 -4 -86 15 2 6 22 14 45 19
23 4 42 12 42 18 0 11 -503 11 -595 0 l-60 -7 38 -18 c21 -9 37 -22 34 -29 -5
-17 -237 -29 -409 -22 -83 3 -139 1 -143 -4 -11 -19 72 -24 305 -19 129 4 226
2 215 -2 -11 -5 -46 -9 -77 -9 -72 -1 -256 -21 -283 -31 -11 -4 38 -5 108 -2
79 3 142 1 165 -6 37 -11 106 -20 192 -24 65 -3 -127 -16 -400 -27 -241 -10
-290 -16 -274 -30 20 -20 168 -44 296 -48 76 -3 138 -10 138 -14 0 -28 -73
-35 -265 -24 -66 4 -118 5 -115 2 7 -7 261 -53 350 -63 l65 -8 -75 -12 c-41
-7 -104 -13 -140 -13 -92 -1 -64 -21 46 -32 79 -8 125 -19 80 -19 -34 0 -9
-25 40 -42 118 -39 192 -42 1512 -44 700 -1 1276 -4 1279 -8 4 -3 -34 -6 -83
-6 -49 0 -291 -7 -539 -15 -247 -8 -508 -15 -580 -16 -83 0 -121 -4 -105 -9
36 -12 827 -30 1535 -36 405 -3 628 -8 664 -16 110 -24 604 19 969 84 119 21
126 21 186 5 34 -9 151 -26 259 -37 109 -11 227 -26 263 -35 72 -17 164 -20
164 -6 0 5 -17 12 -37 16 l-38 8 30 8 c17 5 95 12 175 16 165 7 236 20 125 23
-60 1 -66 3 -40 11 54 17 323 25 420 12 50 -6 133 -12 185 -12 52 -1 102 -6
110 -11 11 -7 5 -10 -24 -10 -45 0 -244 -28 -266 -37 -8 -4 269 -16 615 -29
542 -19 631 -20 638 -8 5 9 26 14 55 15 26 0 90 6 142 13 87 12 90 13 39 15
-77 1 -149 12 -149 21 0 9 21 10 570 29 522 19 570 25 245 34 -148 3 -322 3
-385 -2 -124 -10 -286 -1 -220 12 71 14 269 27 405 27 137 0 313 15 327 28 4
4 -118 6 -270 5 -297 -1 -298 7 -2 27 91 6 244 18 340 25 l175 14 -327 -4
c-227 -3 -336 -1 -355 6 -15 7 -68 15 -118 19 -49 4 182 5 515 3 333 -2 669
-8 747 -14 78 -5 157 -10 175 -10 74 -3 -58 -18 -167 -18 -101 -1 -300 -23
-311 -34 -3 -3 32 -3 78 -1 46 2 172 6 281 8 166 3 197 1 197 -11 0 -8 -15
-20 -32 -28 -33 -13 -33 -13 -8 -19 14 -3 36 -7 50 -9 14 -1 -42 -6 -125 -10
-82 -4 -197 -11 -255 -15 l-105 -7 130 -6 c352 -18 1077 -1 1670 37 115 7 150
19 81 26 -44 5 -64 13 -55 22 2 2 132 5 289 7 l285 4 3 -28 3 -28 277 5 c152
2 264 2 247 -1 -16 -2 -176 -17 -355 -33 l-325 -29 475 5 c612 6 1047 17 1055
26 4 4 -9 14 -29 22 -41 17 -46 31 -14 41 11 4 143 7 292 7 149 0 289 2 311 5
92 14 -20 20 -310 17 -307 -3 -310 -1 -35 28 l125 13 -145 7 c-150 7 -361 24
-370 29 -8 5 194 18 425 28 242 10 363 20 370 31 10 16 -300 52 -428 49 -85
-2 -100 4 -71 26 16 13 48 14 189 10 193 -6 188 2 -24 35 -75 12 -152 24 -171
27 -49 8 -32 12 110 26 124 12 151 23 108 45 -19 9 -8 11 59 9 45 -1 79 1 75
4 -8 7 -287 53 -437 72 l-100 13 90 13 c265 39 264 37 20 43 -121 4 -384 3
-585 -2 -221 -5 -505 -5 -720 1 -195 6 -769 14 -1275 20 -506 5 -958 13 -1005
18 -49 5 -246 5 -465 0 -209 -5 -414 -9 -455 -9 -46 0 -69 -4 -60 -9 18 -10
184 -41 221 -41 21 0 28 -6 32 -27 3 -16 3 -30 1 -32 -2 -3 -77 1 -167 8 -89
7 -180 14 -202 15 -22 2 -65 10 -95 19 -30 10 -145 26 -255 37 -110 11 -227
27 -260 35 -69 16 -124 19 -144 6 -11 -7 -4 -11 24 -17 32 -6 36 -8 19 -14
-24 -9 -132 -19 -273 -25 -122 -5 -147 -15 -40 -16 60 0 69 -2 49 -10 -37 -15
-324 -29 -385 -19 -30 5 -109 12 -177 15 -68 4 -153 14 -190 22 -43 10 -93 14
-136 11 -37 -3 -76 -2 -87 2 -23 8 146 17 530 27 235 7 256 9 165 14 -114 8
-1293 18 -1375 13z m3520 -54 c4 -7 -50 -9 -157 -8 -153 2 -157 2 -63 8 169
10 214 10 220 0z m2645 -39 c0 -11 4 -23 10 -26 9 -5 250 6 429 21 52 4 71 3
67 -5 -5 -7 -43 -11 -97 -11 -59 0 -97 -5 -112 -14 -12 -7 -65 -17 -117 -20
-52 -4 -120 -11 -150 -15 l-55 -8 45 -3 c27 -2 35 -4 20 -7 -55 -8 -71 -14
-65 -23 3 -6 25 -11 48 -11 l42 -2 -39 -6 c-38 -6 -62 -29 -34 -33 7 -1 -57
-4 -142 -7 -181 -7 -225 -1 -271 39 l-34 29 62 1 c113 0 82 42 -45 60 -64 10
-108 10 -185 1 -56 -6 -208 -18 -337 -27 -188 -13 -258 -14 -350 -5 -138 14
-240 32 -240 43 0 10 -79 7 675 27 901 25 875 25 875 2z m-9995 -420 c22 -10
46 -25 52 -33 11 -13 3 -16 -70 -22 -103 -8 -441 -17 -407 -10 60 11 70 15 65
24 -3 6 -25 11 -48 12 -41 1 -41 1 -7 5 33 4 68 23 42 23 -7 0 -12 4 -12 9 0
5 78 9 172 9 145 1 179 -2 213 -17z m8315 -36 c102 -9 230 -19 285 -23 73 -6
-15 -9 -320 -14 -355 -5 -423 -4 -442 8 -41 26 -25 34 65 35 48 0 96 4 107 9
11 5 43 7 70 5 28 -3 133 -12 235 -20z m-5405 -94 c-11 -5 -46 -11 -77 -15
-49 -6 -58 -5 -58 8 0 13 13 16 78 15 49 0 70 -3 57 -8z m-558 -63 c-50 -5
-84 -5 -95 1 -12 7 11 10 78 9 l95 -1 -78 -9z"/>
<path d="M11875 941 c-16 -7 -12 -10 22 -15 50 -9 141 3 122 15 -17 11 -117
10 -144 0z"/>
<path d="M3407 995 c-65 -7 -121 -16 -124 -19 -11 -10 10 -9 562 23 123 8 118
8 -95 8 -124 1 -278 -5 -343 -12z"/>
</g>
</svg>
