<svg version="1.1" viewBox="0.0 0.0 20.0 40.0" fill="none" stroke="none" stroke-linecap="square" stroke-miterlimit="10" xmlns:xlink="http://www.w3.org/1999/xlink" xmlns="http://www.w3.org/2000/svg"><clipPath id="p.0"><path d="m0 0l20.0 0l0 40.0l-20.0 0l0 -40.0z" clip-rule="nonzero"/></clipPath><g clip-path="url(#p.0)"><path fill="#000000" fill-opacity="0.0" d="m0 0l20.0 0l0 40.0l-20.0 0z" fill-rule="evenodd"/><path fill="#000000" fill-opacity="0.0" d="m0.503937 69.685036l0 -99.37007l18.992126 0l0 99.37007z" fill-rule="evenodd"/><path fill="#ff0000" d="m8.045 39.452866q0 -0.0625 0 -0.09375q0 -0.046875 0.015625 -0.078125q0.015625 -0.03125 0.046875 -0.0625q0.03125 -0.03125 0.0625 -0.0625l2.34375 -1.84375q-0.125 0.015625 -0.21875 0.015625q-0.109375 0 -0.203125 0l-2.046875 0l0 -0.78125l3.875 0l0 0.46875q0 0.09375 -0.03125 0.171875q-0.03125 0.078125 -0.125 0.140625l-2.3125 1.828125q0.109375 -0.015625 0.203125 -0.015625q0.09375 0 0.1875 0l2.078125 0l0 0.796875l-3.875 0l0 -0.484375l0 0zm0 -6.0437317l0.6875 0l0 1.59375l0.90625 0l0 -1.234375l0.671875 0l0 1.234375l0.921875 0l0 -1.59375l0.6875 0l0 2.5l-3.875 0l0 -2.5zm0 -0.22917175l0 -0.75q0 -0.125 0.046875 -0.203125q0.046875 -0.078125 0.140625 -0.09375l2.03125 -0.53125q0.09375 -0.03125 0.203125 -0.046875q0.109375 -0.03125 0.234375 -0.046875q-0.125 -0.03125 -0.234375 -0.0625q-0.109375 -0.03125 -0.203125 -0.0625l-2.03125 -0.625q-0.078125 -0.03125 -0.125 -0.109375q-0.0625 -0.078125 -0.0625 -0.1875l0 -0.265625q0 -0.125 0.046875 -0.1875q0.046875 -0.078125 0.140625 -0.109375l2.03125 -0.625q0.09375 -0.03125 0.203125 -0.0625q0.09375 -0.03125 0.21875 -0.0625q-0.125 -0.015625 -0.21875 -0.03125q-0.109375 -0.03125 -0.203125 -0.046875l-2.03125 -0.53125q-0.078125 -0.03125 -0.125 -0.109375q-0.0625 -0.078125 -0.0625 -0.1875l0 -0.71875l3.875 1.203125l0 0.8125l-2.40625 0.734375q-0.0625 0.015625 -0.125 0.046875q-0.0625 0.015625 -0.140625 0.03125q0.078125 0.015625 0.140625 0.046875q0.0625 0.015625 0.125 0.03125l2.40625 0.734375l0 0.828125l-3.875 1.1875zm3.875 -10.6410675l0 0.703125q0 0.125 -0.046875 0.203125q-0.0625 0.0625 -0.140625 0.09375l-0.6875 0.234375l0 1.46875l0.6875 0.234375q0.0625 0.03125 0.125 0.109375q0.0625 0.0625 0.0625 0.1875l0 0.703125l-3.875 -1.515625l0 -0.90625l3.875 -1.515625zm-1.484375 2.5l0 -1.0625l-1.0625 0.359375q-0.09375 0.03125 -0.234375 0.078125q-0.140625 0.046875 -0.296875 0.09375q0.15625 0.046875 0.296875 0.09375q0.140625 0.046875 0.234375 0.078125l1.0625 0.359375zm-0.453125 -6.3331146q0.421875 0 0.78125 0.15625q0.34375 0.140625 0.609375 0.40625q0.25 0.25 0.40625 0.625q0.140625 0.375 0.140625 0.828125l0 1.515625l-3.875 0l0 -1.515625q0 -0.453125 0.140625 -0.828125q0.140625 -0.375 0.40625 -0.625q0.25 -0.265625 0.609375 -0.40625q0.359375 -0.15625 0.78125 -0.15625zm0 0.921875q-0.296875 0 -0.515625 0.078125q-0.234375 0.078125 -0.390625 0.21875q-0.171875 0.140625 -0.25 0.34375q-0.09375 0.1875 -0.09375 0.453125l0 0.609375l2.5 0l0 -0.609375q0 -0.265625 -0.078125 -0.453125q-0.09375 -0.203125 -0.25 -0.34375q-0.171875 -0.140625 -0.40625 -0.21875q-0.234375 -0.078125 -0.515625 -0.078125zm0 -4.8753815q0.421875 0 0.78125 0.15625q0.34375 0.140625 0.609375 0.40625q0.25 0.25 0.40625 0.625q0.140625 0.375 0.140625 0.828125l0 1.515625l-3.875 0l0 -1.515625q0 -0.453125 0.140625 -0.828125q0.140625 -0.375 0.40625 -0.625q0.25 -0.265625 0.609375 -0.40625q0.359375 -0.15625 0.78125 -0.15625zm0 0.921875q-0.296875 0 -0.515625 0.078125q-0.234375 0.078125 -0.390625 0.21875q-0.171875 0.140625 -0.25 0.34375q-0.09375 0.1875 -0.09375 0.453125l0 0.609375l2.5 0l0 -0.609375q0 -0.265625 -0.078125 -0.453125q-0.09375 -0.203125 -0.25 -0.34375q-0.171875 -0.140625 -0.40625 -0.21875q-0.234375 -0.078125 -0.515625 -0.078125zm1.9375 -2.3441315l0 0.90625l-3.875 0l0 -0.90625l3.875 0zm-3.875 -3.533142l0.703125 0l0 1.09375l3.171875 0l0 0.90625l-3.171875 0l0 1.09375l-0.703125 0l0 -3.09375zm3.875 -1.3634491l0 0.90625l-3.875 0l0 -0.90625l3.875 0zm-1.9375 -4.548771q0.421875 0 0.78125 0.15625024q0.359375 0.140625 0.625 0.40625q0.265625 0.265625 0.421875 0.640625q0.15625 0.359375 0.15625 0.8125038q0 0.453125 -0.15625 0.828125q-0.15625 0.375 -0.421875 0.640625q-0.265625 0.265625 -0.625 0.40625q-0.359375 0.140625 -0.78125 0.140625q-0.421875 0 -0.78125 -0.140625q-0.375 -0.140625 -0.640625 -0.40625q-0.265625 -0.265625 -0.40625 -0.640625q-0.15624952 -0.375 -0.15624952 -0.828125q0 -0.4531288 0.15624952 -0.8125038q0.140625 -0.375 0.421875 -0.640625q0.265625 -0.265625 0.625 -0.40625q0.359375 -0.15625024 0.78125 -0.15625024zm0 0.92187524q-0.296875 0 -0.515625 0.078125q-0.234375 0.078125 -0.390625 0.21875q-0.171875 0.140625 -0.25 0.34375q-0.09375 0.203125 -0.09375 0.4531288q0 0.265625 0.09375 0.46875q0.078125 0.203125 0.25 0.34375q0.15625 0.140625 0.390625 0.21875q0.21875 0.078125 0.515625 0.078125q0.28125 0 0.515625 -0.078125q0.234375 -0.078125 0.390625 -0.21875q0.15625 -0.140625 0.25 -0.34375q0.078125 -0.203125 0.078125 -0.46875q0 -0.2500038 -0.078125 -0.4531288q-0.09375 -0.203125 -0.25 -0.34375q-0.15625 -0.140625 -0.390625 -0.21875q-0.234375 -0.078125 -0.515625 -0.078125zm-1.9375 -1.825043q0 -0.0625 0 -0.09375q0 -0.046875 0.015625 -0.078125q0.015625 -0.03125 0.046875 -0.0625q0.03125 -0.03125 0.0625 -0.0625l2.34375 -1.84375q-0.125 0.015625 -0.21875 0.015625q-0.109375 0 -0.203125 0l-2.046875 0l0 -0.78125l3.875 0l0 0.46874997q0 0.09375 -0.03125 0.171875q-0.03125 0.078125 -0.125 0.140625l-2.3125 1.828125q0.109375 -0.015625 0.203125 -0.015625q0.09375 0 0.1875 0l2.078125 0l0 0.796875l-3.875 0l0 -0.484375l0 0z" fill-rule="nonzero"/></g></svg>